<svg id="Calque_1" data-name="Calque 1" xmlns="http://www.w3.org/2000/svg" viewBox="0 0 76.71 73.94"><defs><style>.cls-1{fill:none;stroke:#fff;stroke-miterlimit:10;stroke-width:5px;}.cls-2{fill:#fff;}.cls-3{fill:#28cdc8;}</style></defs><title>Plan de travail 4</title><path class="cls-1" d="M68,24.07H54.51a1.75,1.75,0,0,1-1.73-1.8V8.7a6.21,6.21,0,0,0-6.2-6.2H30.19A6.2,6.2,0,0,0,24,8.7V22.27A1.68,1.68,0,0,1,22.33,24H8.7a6.2,6.2,0,0,0-6.2,6.2V43.74a6.2,6.2,0,0,0,6.2,6.2H22.34A1.68,1.68,0,0,1,24,51.67V65.24a6.2,6.2,0,0,0,6.2,6.2H46.59a6.19,6.19,0,0,0,6.2-6.2V51.67A1.61,1.61,0,0,1,54.38,50H68a6.2,6.2,0,0,0,6.2-6.2V30.27A6.21,6.21,0,0,0,68,24.07Z"/><path class="cls-2" d="M21.45,21.5c.09,17.83,14.94,31,33.9,31.07C55.26,34.74,40.4,21.59,21.45,21.5ZM38.51,43.29H36.62L31.88,30.74h1.75l3.94,10.82,3.94-10.82h1.73Z"/><rect class="cls-3" x="50.28" y="47.49" width="5.07" height="5.07"/><rect class="cls-3" x="21.46" y="21.47" width="5.03" height="5.03"/></svg>