<svg id="Calque_1" data-name="Calque 1" xmlns="http://www.w3.org/2000/svg" viewBox="0 0 274.15 75.96"><defs><style>.cls-1,.cls-4{fill:none;}.cls-1{stroke:#fff;stroke-miterlimit:10;stroke-width:5px;}.cls-2{fill:#28cdc8;}.cls-3{fill:#fff;}</style></defs><title>Plan de travail 5</title><path class="cls-1" d="M69.45,25H56a1.74,1.74,0,0,1-1.73-1.79V9.65A6.21,6.21,0,0,0,48,3.45H31.62a6.2,6.2,0,0,0-6.19,6.2V23.23a1.68,1.68,0,0,1-1.66,1.71H10.14a6.2,6.2,0,0,0-6.2,6.2V44.7a6.2,6.2,0,0,0,6.2,6.2H23.77a1.68,1.68,0,0,1,1.67,1.72V66.2a6.2,6.2,0,0,0,6.2,6.2H48a6.21,6.21,0,0,0,6.2-6.2V52.62A1.61,1.61,0,0,1,55.82,51H69.45a6.21,6.21,0,0,0,6.2-6.2V31.22A6.21,6.21,0,0,0,69.45,25Z"/><rect class="cls-2" x="23.69" y="22.36" width="5.03" height="5.03"/><path class="cls-3" d="M114.34,27.59h5.22L110.6,52h-5.95l-9-24.43h5.25L107.66,47Z"/><path class="cls-3" d="M122,27.45a3,3,0,1,1,3,2.87A2.87,2.87,0,0,1,122,27.45Zm.53,5.18h4.9V52h-4.9Z"/><path class="cls-3" d="M133,36.66h-2.31v-4H133V27.84h4.93v4.79h4.34v4h-4.34V46c0,1.29.53,1.85,2.07,1.85h2.27V52h-3.08c-3.71,0-6.19-1.57-6.19-6Z"/><path class="cls-3" d="M153.4,32.32a7.68,7.68,0,0,1,6.41,3.08V32.63h4.93V52h-4.93V49.19a7.65,7.65,0,0,1-6.44,3.15c-4.9,0-8.82-4-8.82-10.08S148.47,32.32,153.4,32.32Zm1.26,4.3c-2.62,0-5.11,2-5.11,5.64S152,48,154.66,48s5.15-2,5.15-5.7S157.36,36.62,154.66,36.62Z"/><path class="cls-3" d="M169.54,26.12h4.9V52h-4.9Z"/><path class="cls-3" d="M187.74,52.34c-5.64,0-9.73-3.92-9.73-10s4-10,9.73-10,9.55,3.81,9.55,9.59a10.93,10.93,0,0,1-.14,1.89H183a4.53,4.53,0,0,0,4.65,4.48,4,4,0,0,0,3.89-2.35h5.28A9,9,0,0,1,187.74,52.34ZM183,40.51h9.21a4.31,4.31,0,0,0-4.62-4.17A4.51,4.51,0,0,0,183,40.51Z"/><path class="cls-3" d="M200.86,27.59h5.57l7.77,18.17L222,27.59h5.53V52h-4.9V36.13L216.05,52h-3.71l-6.58-15.89V52h-4.9Z"/><path class="cls-3" d="M240.8,52.34c-5.64,0-9.73-3.92-9.73-10s4-10,9.73-10,9.55,3.81,9.55,9.59a10.93,10.93,0,0,1-.14,1.89H236a4.53,4.53,0,0,0,4.65,4.48,4,4,0,0,0,3.89-2.35h5.28A9,9,0,0,1,240.8,52.34Zm-4.73-11.83h9.21a4.31,4.31,0,0,0-4.62-4.17A4.51,4.51,0,0,0,236.07,40.51Z"/><path class="cls-3" d="M261.55,32.32a8,8,0,0,1,6.34,3V26.12h5V52h-5V49.15a7.33,7.33,0,0,1-6.37,3.19c-4.94,0-8.86-4-8.86-10.08S256.58,32.32,261.55,32.32Zm1.23,4.3c-2.63,0-5.12,2-5.12,5.64S260.15,48,262.78,48s5.14-2,5.14-5.7S265.47,36.62,262.78,36.62Z"/><polygon class="cls-4" points="39.49 41.15 36.36 31.6 33.09 31.6 37.57 44.24 41.42 44.24 45.9 31.6 42.65 31.6 39.49 41.15"/><path class="cls-3" d="M22.88,22.46c0,.15,0,.3,0,.46v-.46Z"/><path class="cls-3" d="M56.34,48.45C54,34.78,42.64,24.74,27.92,22.8v4.65H23.31c2.3,13.7,13.68,23.77,28.4,25.72V48.45ZM41.42,44.24H37.57L33.08,31.6h3.28l3.13,9.55,3.16-9.55H45.9Z"/><polygon class="cls-2" points="56.34 48.45 51.71 48.45 51.71 53.17 51.71 53.52 56.79 53.52 56.79 48.45 56.34 48.45"/><polygon class="cls-2" points="27.92 22.8 27.92 22.43 22.9 22.43 22.9 22.46 22.9 22.92 22.9 27.45 23.31 27.45 27.92 27.45 27.92 22.8"/></svg>